<?xml version="1.0" encoding="UTF-8"?>
<svg id="Layer_2" data-name="Layer 2" xmlns="http://www.w3.org/2000/svg" viewBox="0 0 139.05 175.39">
  <defs>
    <style>
      .cls-1 {
        fill: #eee;
      }
    </style>
  </defs>
  <g id="Layer_2-2" data-name="Layer 2">
    <g>
      <path class="cls-1" d="m4.81,44.44c.97,1.76,2.26,3.43,3.98,4.92,2.32,2.01,6.16,3.74,10.82,4.11,4.45.36,9.04-.58,12.38-2.07,3.91-1.74,6.28-4.13,8.21-6.5,9.22-11.31,10.64-24.1,3.98-35.83-1.12-1.96-2.49-3.94-5.04-5.55C35.42,1.18,29.21-.11,23.19,0,8.19.31,4.86,9.49,3.25,15.27c-1.62,5.8-2.35,11.68-1.64,17.52.44,3.64,1.09,7.84,3.2,11.65Z"/>
      <path class="cls-1" d="m39.82,130.2c-1.32-1.7-2.93-3.31-4.94-4.71-2.71-1.89-6.87-3.43-11.58-3.58-4.5-.14-8.88,1.01-11.91,2.65-3.54,1.92-5.43,4.41-6.89,6.86-6.94,11.69-5.83,24.49,3.11,35.85,1.5,1.9,3.26,3.8,6.12,5.29,4.16,2.16,10.6,3.15,16.56,2.75,14.87-1.01,16.37-10.31,16.84-16.14.47-5.85.04-11.73-1.83-17.52-1.16-3.6-2.63-7.75-5.48-11.44Z"/>
      <path class="cls-1" d="m53.34,124.5c-2.05-3.1-3.77-6.32-4.92-9.62-1.55-4.46-1.66-9.66.84-13.67,2.39-3.82,6.86-6.01,11.34-6.51,5.25-.59,10.47.85,15.38,2.58,23.42,8.3,43.98,24.47,57.57,45.27,2.28,3.48,4.4,7.18,5.19,11.27,1.15,5.95-.97,12.36-5.13,16.72-10.37,10.86-26.64,1-36.57-5.58-9.96-6.6-19.45-13.96-27.95-22.37-5.28-5.23-11.3-11.38-15.75-18.09Z"/>
      <path class="cls-1" d="m53.34,50.88c-2.05,3.1-3.77,6.32-4.92,9.62-1.55,4.46-1.66,9.66.84,13.67,2.39,3.82,6.86,6.01,11.34,6.51,5.25.59,10.47-.85,15.38-2.58,23.42-8.3,43.98-24.47,57.57-45.27,2.28-3.48,4.4-7.18,5.19-11.27,1.15-5.95-.97-12.36-5.13-16.72-10.37-10.86-26.64-1-36.57,5.58-9.96,6.6-19.45,13.96-27.95,22.37-5.28,5.23-11.3,11.38-15.75,18.09Z"/>
      <path class="cls-1" d="m22.12,66.81c-7.34-.34-14.63,3.82-18.35,10.15C.06,83.3-.06,91.52,3.21,98.1c2,4.02,5.22,7.46,9.19,9.57s8.68,2.83,13.07,1.85c4.22-.95,8-3.43,10.91-6.63s4.97-7.1,6.45-11.16c.89-2.45,1.58-5.07,1.15-7.64-.45-2.69-2.07-5.02-3.65-7.25-1.1-1.55-2.23-3.11-3.89-4.1-1.24-.74-2.49-1.4-3.69-2.22-3.17-2.15-6.78-3.53-10.63-3.71Z"/>
    </g>
  </g>
</svg>